<?xml version="1.0" encoding="utf-8"?>
<!-- Generator: Adobe Illustrator 26.5.0, SVG Export Plug-In . SVG Version: 6.00 Build 0)  -->
<svg version="1.1" id="Layer_1" xmlns="http://www.w3.org/2000/svg" xmlns:xlink="http://www.w3.org/1999/xlink" x="0px" y="0px"
	 viewBox="0 0 4083 1633" style="enable-background:new 0 0 4083 1633;" xml:space="preserve">
<style type="text/css">
	.st0{fill:#262626;}
</style>
<g>
	<path class="st0" d="M835.6,382.8c-16.6-5.7-31.3-13.7-46.3-21.1c-56.4-27.8-114.9-49.9-176.9-61.8c-41.5-8-82.7-9.8-124.5,0.7
		c-39.8,10-53.7,47.9-47,78.6c5.8,26.5,5.9,26.5,30.7,16.3c60.6-24.8,123.4-40.2,188.9-42.8c35.1-1.4,69.9,2.1,103.1,14.8
		c21.5,8.3,41.6,18.6,54.2,39.2c3.6,5.9,6.4,6.7,11.2,0.2c15.7-21.3,35.5-38.7,57-53.8c62.9-44,133-31,180.9,31.4
		c28.5,37.1,42,79.9,51.9,124.1c14.2,63.5,17.4,128,9.4,192.8c-1.6,12.6-2.3,25.2-5.9,37.5c-1.3,4.5-2.5,8.9-6.5,13.2
		c-0.8-2.3-1.6-3.4-1.5-4.4c4.3-32.9-0.9-65.3-5-97.8c-7.4-58.5-18.6-116.2-42.5-170.5c-12.4-28.2-30.6-52.9-53.6-73.6
		c-26.2-23.6-51.9-25.1-80.6-4.7c-7.8,5.6-14.9,12.1-22.2,18.4c-3.9,3.4-4.3,5.2,1.1,9.3c56.3,42.3,105.7,91.6,144.8,150.4
		c21.6,32.6,35.8,68.5,40.8,107.7c2.4,18.6-0.3,36.6-4.2,54.6c-3.1,14.7-3.4,14.1,11.9,16.2c37.4,5,71.8,17.6,100.5,42.7
		c42.2,36.9,49.1,83,33.9,134.6c-6.9,23.4-19.1,44-33.4,63.3c-46,61.9-105.5,107.6-173.8,142.3c-25.6,13-51.9,24.9-77.8,37.3
		c-2.7,1.3-5.2,3.6-10.4,0.5c13.2-10.7,26.5-20,40-29.2c65-44.8,127.1-92.9,172.1-159.4c15.3-22.6,26.5-47,33.5-73.3
		c8.4-31.5-6.4-59.6-38.9-74.8c-30.5-14.2-31.4-14-36.2,18.4c-9.9,66.9-29,130.8-61.2,190.4c-21.1,39-47.7,73.1-90,91.6
		c-9.6,4.2-19.2,8.2-29.6,9.8c-6.9,1-9.8,2.9-6.8,11.2c5.4,15.1,9.4,30.7,13.4,46.3c8.1,31.2,7.9,62.4-4.6,92.3
		c-17.1,40.9-48.5,64.3-92,73.2c-60.7,12.4-117.8-1.6-173.7-22.5c-55.8-20.9-108.4-47.9-155-85.6c-9.6-7.8-22.3-11.9-29.5-25.6
		c12,2.8,20.6,8.6,29.7,13c71.3,34.2,143.9,64.7,223.1,74.9c34.5,4.4,68.9,2.5,102.1-9.6c29-10.6,44.1-37.3,38.8-67.3
		c-1.4-8.1-2.8-16.3-3.5-24.6c-0.8-8.6-4.3-9.8-11.9-6.5c-43.2,18.8-87.6,34-134,42.1c-53.6,9.3-107.4,13.7-160.5-3.8
		c-26.4-8.7-51.2-19.9-68-43.6c-5.4-7.6-8.3-0.6-10.7,2.3c-11.7,14.3-25.4,26.5-39,38.8c-24.3,22-52.8,35.4-85.4,38.9
		c-38.6,4.1-69.8-12.5-96.7-38c-28.4-26.9-42.8-62.3-55.4-98.2c-25.5-72.6-29.4-147.7-23.3-223.5c1.8-22,4-44.3,9.6-65.9
		c1.9-7.2-2.5-8.3-7.3-9.4c-39-8.9-72.3-27.4-97.4-59.2c-22.2-28.1-25.6-60.8-19.4-94.2c10-54,43.8-94.6,81.4-131.6
		c59.7-58.7,131.2-99.3,208.8-129.6c1.9-0.8,4.1-0.9,8-1.8c-4.2,7.8-9.9,11.2-15.4,14.8c-59.4,38.2-115.1,80.8-162.7,133.5
		c-26.6,29.5-48,62-61.3,99.6c-16.6,46.8,2.4,83.5,50.4,96.8c16.3,4.5,15.7,4.4,18.2-11.6c11.5-74.9,29.9-147.6,70-213.1
		c18.9-30.9,42.1-57.9,73.1-77.6c12.3-7.8,25.2-14,40-15.2c8.9-0.7,10-3.9,6.6-12.8c-13.9-36.5-24.6-73.6-15.2-113.4
		c13.9-58.7,52.6-91.6,113.3-99.7c58.4-7.8,113,6.5,166,27.4c62,24.4,119.4,57.4,170.7,100.4c2.3,2,4.7,3.9,6.9,6
		C835.3,379.8,835.2,380.9,835.6,382.8z M1043.6,692c-1.2-25-6.7-49.1-16.5-72.1c-28.9-67.8-75.2-123.2-125.7-175.6
		c-6.1-6.3-8.6-2.7-11.6,2.1c-13.5,21.9-25.7,44.5-35.2,68.4c-25.6,64.5-36.5,132.2-43.9,200.8c-0.9,8.4,1.5,13,9.3,15.9
		c23.6,8.9,47.4,17.5,72,23.1c17.3,3.9,35,7.9,53.1,5.7c17.7-2.2,35.3-6.3,53.1-6.9c19.6-0.7,30.2-11.1,37.8-27.2
		C1041,715.3,1043.7,704,1043.6,692z M1063.1,827.2c0,0.6,0,1.2,0,1.8c-10.5,0-21.1-1-31.4,0.2c-70.3,7.8-136.3,30.4-200.3,59.6
		c-22.8,10.4-22.4,10.9-19,34.9c8,55.8,26.9,106.3,65.2,149.5c18,20.3,40.6,26.1,65.1,16.4c22.4-8.9,39.9-23.6,54.7-41.5
		c49.6-59.8,79.6-129.3,98.2-204.1c4.2-16.8,3.6-16.9-14.1-16.8C1075.3,827.2,1069.2,827.2,1063.1,827.2z M277,937.9
		c0.6,14.7,4.8,37,13.4,58c29,70.7,76.3,128.8,128.2,183.6c6.2,6.5,8.4,1.2,11.6-3.2c24.9-34.4,39.4-73.7,51.3-113.7
		c14.7-49.4,22.1-100.2,27.3-151.5c1.3-13.4-3.2-17.3-13.5-21.3c-51.9-20.1-104.2-31.9-160.8-22.5
		C296.8,873.6,277.1,891.7,277,937.9z M691.7,1227.9c22.3,0.6,43.6-2,64.9-4.2c34.3-3.5,67.5-12.6,101-20.2
		c7.9-1.8,7.5-4.3,4.3-10.4c-24.7-47.4-58.2-88.1-97.1-124.3c-28.8-26.8-60.3-50.5-90.6-75.5c-10.5-8.7-17.6-6.9-27.2,0
		c-52.5,38-90.6,86.5-108.8,149.4c-2.1,7.1-3.6,14-0.6,21.5c10.2,26,29.8,41,55.6,49.2C625.6,1223.5,658.6,1229.2,691.7,1227.9z
		 M257.2,796.4c0-0.2,0-0.5,0-0.7c7.4-0.3,14.9-0.5,22.3-1.1c7.4-0.6,14.7-1.6,22.1-2.5c71.5-8.2,136.8-35.8,201.9-64
		c6.3-2.7,8.4-7,7.1-13.4c-5.4-26.8-8.8-54.1-16.7-80.4c-11.9-39.7-40.4-68.6-66.1-99.4c-2.6-3.1-6.1-4.7-10.2-5.3
		c-22.2-3.4-42.1,1.2-60.3,14.9c-32,24.2-55.1,55.6-75.6,89.4c-27.1,44.7-41.6,94.4-57.7,143.5c-5.5,16.8-5.6,16.8,12.3,18
		C243.2,795.7,250.2,796.1,257.2,796.4z M637.8,395.4c-63.8,0.3-117.6,9.4-171,22.9c-10.6,2.7-11.1,4.5-6.5,14
		c26.7,55.5,69.2,98,113.4,139.1c25,23.2,54.6,40.6,80,63.3c6,5.4,11.5,2.6,16.4-1.4c9.4-7.8,18.1-16.5,27.8-23.9
		c44.8-34,69.6-80.3,83.9-133.4c1.9-7.2,1.1-13.3-1.1-20.3c-7-22.3-24.8-33-44.2-41.5C702.3,399.2,666.1,395.2,637.8,395.4z
		 M357.4,1236.1c18.2-2.4,37.8-15.1,53.7-34.1c3.8-4.5,1-6.8-2.7-9.1c-15.8-9.5-29.3-22-43.1-34.1c-51.8-45.8-97.1-96.8-125.2-160.9
		c-17.3-39.4-27.1-80-10.7-122.7c1-2.6,1.4-5.7-1.6-6.8c-7-2.5-14.7-5.3-21.6-2.9c-5.6,2-2.8,9.3-2.8,14.2
		c-0.6,59.6,9.4,118,21.6,176c11.1,52.8,30.4,102.4,64.2,145.3C304.9,1220.8,323.2,1236.4,357.4,1236.1z M605.9,820.2
		c-0.2,3.4-0.2,5.6-0.5,7.7c-1.9,11.7,1.3,19.4,13.7,23.9c13.4,4.9,25.9,12.3,37.4,21.1c4.8,3.7,8.8,3.5,13.9-0.6
		c12.9-10.3,25.6-21,40.4-28.7c5.4-2.8,6.7-7,5.9-12.9c-1.8-13.4-3.7-26.8-2-40.3c1-8.5-2.7-13.8-10.1-17.8
		c-12.2-6.6-25-12-36.4-20.2c-5.9-4.3-12.3-3.5-18.4,0.3c-13.2,8.4-26.3,16.9-39.6,25.2c-6.9,4.3-9.5,9.8-6.7,17.7
		C606.4,803.9,605,812.8,605.9,820.2z"/>
	<path class="st0" d="M2291.4,466.6c0-115.3,0.1-230.7-0.2-346c0-8.2,2.3-10.2,10.3-10.2c54.6,0.2,109.2-1.2,163.9,0.4
		c30.8,0.9,61.2,3.9,89.4,17.8c37.1,18.3,57.9,49.1,66,88.9c8.8,43.1,7.1,86.7,4.8,130.3c-1.1,21.3-4.5,42.3-12.6,62.2
		c-9.9,24.2-25.9,43.4-48.5,57.2c-12.7,7.8-12.2,7.9,0.2,15c30.7,17.5,48,44.6,56.2,78.5c6.1,25.4,6.5,51.1,6.9,76.9
		c0.5,41,0.7,82.1,0.6,123.1c0,18.9,3,37.2,9.8,54.8c2.6,6.7,0.6,8.6-6,8.5c-31.7-0.1-63.3,0.2-95-0.1c-13.3-0.1-15.1-2.2-17.1-15.4
		c-2.7-17.6-3.4-35.4-3.6-53.1c-0.4-44.3-0.3-88.5-0.4-132.8c0-14.2-1.5-28.3-5.2-42.1c-7.6-28.9-25.5-44.1-55.1-47.1
		c-14.5-1.5-29-1.6-43.5-1.7c-7.3,0-9.2,1.9-9.2,9.1c0.2,57.5-0.1,115-0.1,172.5c0,33.9-0.2,67.9,0.4,101.8c0.1,7.6-2.2,9.2-9.2,9.1
		c-31-0.4-62.1-0.5-93.1-0.1c-7.8,0.1-9.7-1.9-9.7-9.6c0.3-116,0.2-232,0.2-348C2291.5,466.6,2291.4,466.6,2291.4,466.6z
		 M2403.3,321.2c-0.2,0-0.4,0-0.6,0c0,11.6,0,23.3,0,34.9c0,22.9-0.1,45.9,0,68.8c0,3.3-1.1,7.8,4.7,7.5c20.3-0.8,41,0.4,60.9-2.8
		c28.7-4.5,41.6-24.4,45.5-58.2c4.4-38.3,2.8-76.7-1.7-115c-2.5-21.4-19.6-39.2-41-42.9c-19.5-3.4-39.2-2.2-58.9-2.5
		c-7.8-0.1-9.1,2.6-9.1,9.4C2403.4,254,2403.3,287.6,2403.3,321.2z"/>
	<path class="st0" d="M3661.9,467.6c0-115.6,0.1-231.3-0.2-346.9c0-7.8,1.7-10.4,10-10.4c54.9,0.2,109.9-0.8,164.8,0.4
		c22,0.5,43.7,2.8,64.9,9.1c52.5,15.7,81.9,51.9,90.1,104.9c7.3,47.1,6.1,94.5,0.8,141.9c-3.4,30.5-13,58.2-34,81.2
		c-8.2,9-18.6,14.9-28.6,21.3c-2.7,1.7-6.3,3.3-6.3,6.8c0.1,3.8,4.3,4,7.1,5.4c32.3,15.4,50.2,42.3,59.1,75.8
		c5.6,21,7.4,42.5,7.7,64.1c0.4,40.4,0.1,80.8,0.3,121.1c0.2,25.2,2.1,50.3,10.3,74.3c2.3,6.7-0.4,7.1-5.5,7.1
		c-33.3,0.1-66.6,0.1-99.8,0.3c-6.2,0-8.9-2.2-10.3-8.6c-4.9-22.2-6.9-44.6-7.1-67.2c-0.3-44.6-0.2-89.1-0.1-133.7
		c0-15.6-3.1-30.7-8.9-45.1c-9.1-22.8-27.6-33.2-50.9-35.8c-14.7-1.7-29.6-2.3-44.5-1.8c-6.8,0.2-8.5,2-8.5,8.8
		c0.3,80.8,0.2,161.5,0.2,242.3c0,11.3-0.4,22.6-0.1,33.9c0.1,5.3-1.3,7.5-7,7.4c-32.6-0.2-65.3-0.2-97.9,0c-5.4,0-6.2-1.9-6.2-6.8
		c0.1-116.6,0.1-233.2,0.1-349.8C3661.7,467.6,3661.8,467.6,3661.9,467.6z M3772.6,320.8c-0.2,0-0.3,0-0.5,0
		c0,33.6,0.3,67.2-0.2,100.8c-0.1,8.1,2.4,10.8,10.3,10.4c15.2-0.8,30.4-0.9,45.5-1.2c23.2-0.5,39.8-11.2,49.5-32.3
		c3.8-8.2,6.1-16.8,6.3-26c0.6-38.4,2.8-76.9-2.4-115.1c-3.8-27.7-22.2-44.4-49.2-45.6c-16.8-0.8-33.6-0.3-50.4-0.8
		c-7-0.2-9.4,1.5-9.3,9.1C3772.9,253.6,3772.6,287.2,3772.6,320.8z"/>
	<path class="st0" d="M2409.9,1102.8c-5.4,20.7-9.1,41.5-12.1,62.4c-6.2,42.4-12.6,84.7-18.8,127c-6.1,41.7-12,83.4-18.1,125.1
		c-4.9,33.1-10,66.2-14.7,99.4c-0.8,5.4-2.1,7.6-8.2,7.5c-23.6-0.4-47.2-0.5-70.8-0.1c-6.9,0.1-9.7-2.1-10.7-8.9
		c-6.4-41.9-13-83.9-19.8-125.8c-8.1-49.8-16.6-99.6-24.7-149.4c-6.9-42.9-13.4-85.9-20.2-128.8c-0.1-0.8-0.8-1.5-1.9-3.4
		c-2.2,4.4-1.5,8.2-1.5,11.7c0,126.6,0,253.3-0.1,379.9c0,7.9,3.4,18.1-1.8,23.2c-4.8,4.6-14.8,1.1-22.5,1.2
		c-15.8,0.2-31.7-0.3-47.5,0.1c-6.4,0.2-8.3-1.9-8.1-8.2c0.4-22,0.3-43.9,0.3-65.9c0-166.4,0-332.8,0-499.1c0-12,0-12.1,12.1-12.1
		c35.2,0,70.5,0.3,105.7-0.2c8-0.1,10.7,3.1,11.8,9.9c6.5,40.3,13.2,80.6,19.8,120.9c6.2,38.4,12.4,76.9,18.5,115.3
		c6.8,42.9,13.5,85.8,20.4,128.7c2.2,13.3,5.1,26.5,9.3,39.8c2-13.7,4-27.3,6.1-41c6.3-41.7,12.6-83.3,18.8-125
		c6.1-40.7,12-81.5,18-122.2c5.9-40.1,11.8-80.2,17.5-120.3c0.6-4.4,2.7-6,7.1-6c38.5,0.1,76.9,0.2,115.4,0c8.6-0.1,7,5.6,7,10.5
		c0,54.3-0.1,108.5-0.1,162.8c0,135,0,270.1,0.2,405.1c0,5.8-2,7.1-7.2,7c-23.9-0.2-47.8-0.4-71.7-0.1c-6.5,0.1-8.1-2.3-8.1-8.5
		c0.3-124.7,0.5-249.4,0.6-374.1C2409.9,1128.7,2409.9,1116,2409.9,1102.8z"/>
	<path class="st0" d="M1974.4,110.5c24.2,0,48.5,0.2,72.7-0.1c6.2-0.1,8.7,1.2,9.7,8.1c8.4,54.4,17.5,108.6,26.2,163
		c10,62.6,19.7,125.2,29.8,187.8c9.4,58.8,19.1,117.5,28.5,176.3c9.2,57.2,18.1,114.4,27.3,171.6c0.8,5.2-0.8,6.9-6,6.9
		c-33.3-0.1-66.6-0.1-99.8,0.3c-5.9,0.1-7-3-7.6-7.4c-3.4-22.9-7.1-45.8-10.1-68.8c-2.1-15.9-5.6-31.7-6.2-47.9
		c-0.2-4.7-2.5-5.8-6.9-5.8c-42.3,0.1-84.6,0.2-127,0c-6.6,0-6.9,3.9-7.6,8.6c-5.6,37.6-11.6,75-16.9,112.7c-1,7.1-4,8.4-10,8.4
		c-29.1-0.1-58.2-0.2-87.2,0.1c-6.6,0.1-6.6-3.1-5.8-7.8c4.5-27,9-53.9,13.4-80.9c6.4-39,12.6-78.1,19-117.1
		c7.1-43.5,14.2-86.9,21.2-130.4c7.3-45.4,14.3-90.9,21.6-136.3c8.3-51.7,16.7-103.5,25-155.2c4-25.1,8.2-50.1,11.9-75.3
		c1.2-8,4.2-11.3,13-11c23.9,0.6,47.8,0.2,71.7,0.2C1974.4,110.3,1974.4,110.4,1974.4,110.5z M1965.9,233.7
		c-2.6,20.5-4.8,39.3-7.5,58c-7.2,48.7-14.5,97.4-22,146.1c-7.8,50.6-12.7,101.6-23.3,151.8c-1.4,6.7-0.8,9.7,7.5,9.5
		c31-0.7,62-0.8,93.1-0.7c7.2,0,8.6-2.1,7.4-9c-4-24.1-7.5-48.3-11-72.5c-5.5-37.3-10.7-74.6-16.2-111.8
		c-5.5-37.6-11.2-75.1-16.8-112.7C1974,273.2,1972.7,253.9,1965.9,233.7z"/>
	<path class="st0" d="M1446.1,448.7c0,72.1-0.1,131.9,0.1,191.7c0,12.9-0.1,25.9,1.6,38.7c4.9,36.5,27.4,54.6,66.5,49.6
		c28.3-3.6,44.7-23.5,47.6-58.7c2.8-33.6,0.9-67.2,0.6-100.7c-0.1-8.1,1.9-10.5,10.1-10.4c28.8,0.5,57.5,0.4,86.3,0.1
		c7.1-0.1,9.8,2,9.5,9.3c-1.7,41.6,1.4,83.5-3.9,124.9c-9,70.7-45.8,121.6-123.9,135.4c-32.3,5.7-64,4.5-95.7-3.8
		c-58.7-15.5-91.2-54.9-104-112.4c-4.2-18.9-6.1-38.1-6.1-57.6c0.2-129.2-0.1-258.4,0.5-387.7c0.2-31.1,6.3-61.6,21.6-89.3
		c20.6-37.4,52.2-60.9,93.9-70.1c38.2-8.4,76.5-7.5,113.9,4.2c56,17.5,86.7,57.8,97.8,113.9c7.8,39.5,5.6,79.7,5.9,119.7
		c0,4.1-1.4,5.8-5.6,5.8c-31.3-0.2-62.7-0.3-94-0.3c-6.3,0-5.1-4.4-5.2-8.1c-1.1-25.2,1.5-50.4-1.5-75.5c-1-8.6-2-17.4-4.2-25.7
		c-7.5-27.2-35.5-42-64.8-37.3c-31.5,5-44,29.9-45.2,55.3C1444.2,326.6,1447.2,393.8,1446.1,448.7z"/>
	<path class="st0" d="M3216.3,467.2c0-115,0-230,0-345c0-11.5,0.1-11.5,11.7-11.5c94.4,0,188.7,0.1,283.1-0.2
		c8.7,0,11,2.6,10.9,10.8c-0.5,27.1-0.6,54.3-0.2,81.4c0.1,7.4-2,9.2-9.2,9.1c-59.1-0.4-118.3-0.1-177.4-0.6c-6.9-0.1-8,1.8-8,8
		c0,61.1,0,122.1-0.6,183.2c-0.1,8.2,3,9.4,10.1,9.3c44.6-0.3,89.2-0.1,133.8-0.1c11.4,0,11.4,0.1,11.4,11.8
		c0,26.8-0.3,53.6,0.1,80.4c0.1,6.9-1.9,8.7-8.7,8.6c-44.9-0.3-89.8,0-134.8-0.4c-8.3-0.1-11.6,1-11.5,10.7
		c0.4,63.3,0.1,126.6-0.4,190c-0.1,8.7,2.8,10.6,11.1,10.6c57.8-0.3,115.7,0.1,173.5-0.3c9.1-0.1,10.8,3.1,10.7,11.1
		c-0.3,26.8-0.4,53.6,0,80.4c0.1,7.3-1.4,10-9.4,9.9c-95.7-0.4-191.3-0.5-287-0.3c-8,0-9.6-2.5-9.5-10
		C3216.3,698.5,3216.3,582.8,3216.3,467.2C3216.3,467.2,3216.3,467.2,3216.3,467.2z"/>
	<path class="st0" d="M2771.8,467.4c0-115.7,0.1-231.3-0.1-347c0-7.1,1.1-10,9.3-10c95,0.3,190,0.3,285.1,0
		c8.9,0,11.3,2.2,11.1,11.1c-0.7,26.8-0.6,53.6-0.2,80.4c0.1,7.7-1.9,9.8-9.6,9.7c-58.5-0.4-117-0.1-175.5-0.5
		c-7.3,0-9.3,1.9-9.3,9.2c0.2,60.4,0.3,120.8-0.2,181.2c-0.1,8.4,2.6,10,10.4,10c44.9-0.3,89.8,0.2,134.8-0.1
		c8.2-0.1,10.4,2.6,10.3,10.5c-0.4,27.1-0.5,54.3,0,81.4c0.1,7.5-2.2,9.1-9.3,9.1c-45.2-0.4-90.5,0-135.7-0.5
		c-8.2-0.1-10.2,2.5-10.2,10.4c0.3,63.6,0.2,127.3-0.1,190.9c0,7.4,1.7,9.9,9.6,9.9c58.2-0.3,116.3,0.1,174.5-0.3
		c8.8-0.1,10.7,2.4,10.5,10.8c-0.6,27.4-0.5,54.9-0.1,82.4c0.1,6.5-1.8,8.2-8.1,8.2c-96.3-0.2-192.6-0.2-288.9,0
		c-6.1,0-8.2-1.3-8.2-7.9C2771.9,700,2771.8,583.7,2771.8,467.4C2771.8,467.4,2771.8,467.4,2771.8,467.4z"/>
	<path class="st0" d="M1715.2,1231.7c0-55.6-0.7-111.1,0.2-166.7c0.7-41.3,14.2-77.7,47-105.1c19.3-16.1,42.3-23,66.5-26.1
		c29.9-3.8,59.5-2.2,87.5,9.6c40.3,16.9,63.3,48.2,72,90.5c2.7,13.3,4.1,26.7,4.1,40.3c-0.1,102.1-0.1,204.2-0.2,306.3
		c0,20.4-2,40.5-7.5,60.2c-13.8,49.1-47,77.1-96,86.8c-30.1,6-60.3,3.8-89.8-5.4c-45.6-14.2-69.5-47.5-80-92.2
		c-3.7-15.8-4.2-31.9-4.2-48.1c0.1-50.1,0-100.1,0-150.2C1715.1,1231.7,1715.1,1231.7,1715.2,1231.7z M1805.9,1233.1
		c0,49.4,0,98.8,0,148.2c0,10,0.1,20,2.3,29.8c5.2,23.1,21.7,36.2,45.7,36.1c23.6-0.2,40.5-12.8,44.7-34.5
		c1.7-8.8,2.8-17.8,2.7-26.9c-0.1-104,0-207.9,0-311.9c0-7.1-0.6-14.2-1.9-21.2c-3.2-16.3-11.5-29.2-27.5-34.4
		c-17.5-5.7-34.8-5.4-49.8,8c-13.7,12.2-15.1,28.7-15.7,45.1C1804.4,1125.2,1806,1179.2,1805.9,1233.1z"/>
	<path class="st0" d="M3118.8,938.9c19.4,0,38.8,0.2,58.2-0.1c6.8-0.1,9.3,1.8,10.4,9c12,77.3,24.3,154.5,36.7,231.7
		c12.6,78.5,25.5,156.9,38.2,235.4c5.2,32.4,10.3,64.8,15.5,97.3c1.9,11.9,1.9,12-10.4,12c-24.2,0-48.5-0.2-72.7,0.1
		c-6.6,0.1-8.6-2.1-9.5-8.6c-4.1-30.9-9.1-61.8-13.3-92.7c-0.7-5-2.9-5.5-6.9-5.5c-33.9,0.1-67.9,0.2-101.8-0.1
		c-6.9-0.1-6.9,4-7.5,8.4c-4,28.4-8,56.7-12.1,85.1c-1.9,13.4-2,13.3-15.8,13.3c-20.7,0-41.4-0.2-62,0.2c-6.5,0.1-8.5-1.8-7.4-8.1
		c6.7-40.6,13.3-81.3,19.9-121.9c6.3-38.7,12.5-77.5,18.7-116.2c6.9-42.9,14-85.7,20.9-128.6c6.1-38.1,11.9-76.3,17.9-114.4
		c4.7-29.9,10.4-59.6,13.7-89.6c0.7-6.3,4.2-6.8,9.3-6.8c20,0.2,40.1,0.1,60.1,0.1C3118.8,938.8,3118.8,938.8,3118.8,938.9z
		 M3115.4,1041.6c-9.7,41.8-14.8,83.7-21.3,125.3c-8.4,54.4-15.8,109-24.3,163.4c-1.3,8.4,1.2,9.2,8.2,9c22-0.5,43.9-0.4,65.9-0.5
		c13.6-0.1,13.9-0.2,12.1-13.5c-5.9-42.4-12-84.8-18.1-127.2c-5.6-38.5-11.3-77.1-16.9-115.6
		C3119.1,1068.9,3117.3,1055.2,3115.4,1041.6z"/>
	<path class="st0" d="M2620,1231.4c0-94,0.1-188-0.2-281.9c0-8.6,2.4-10.9,10.9-10.8c48.4,0.8,96.9-1.3,145.3,1.8
		c64.4,4,109.3,47.5,114.4,111.7c3.7,46.1,3.9,92.4-0.6,138.3c-4.2,43.7-22.7,79.7-64.8,99.4c-20.9,9.8-43.3,11.9-65.8,13
		c-12.3,0.6-24.6,0.9-36.8,0.3c-8.3-0.4-10.9,1.8-10.9,10.6c0.3,66.5-0.1,133.1,0.1,199.6c0,8.4-1.8,11.1-10.6,10.9
		c-23.9-0.7-47.8-0.6-71.7-0.3c-7.3,0.1-10.1-1.4-10-9.6c0.3-94.3,0.2-188.6,0.2-282.9C2619.7,1231.4,2619.8,1231.4,2620,1231.4z
		 M2711.9,1120.2c-0.1,0-0.1,0-0.2,0c0,31,0,62,0,93c0,4.1-1.1,8.6,5.9,8.3c15.2-0.5,30.4,0.5,45.5-1.2c19.2-2.1,30.3-12.3,34.4-31
		c2.8-13,4.1-26.1,3.9-39.4c-0.5-30,2.9-60.2-2.3-89.9c-4.7-26.8-15.2-36.2-34.2-37.9c-14.8-1.3-29.6-1.9-44.5-1.6
		c-6.7,0.1-8.7,1.9-8.6,8.7C2712.1,1059.5,2711.9,1089.9,2711.9,1120.2z"/>
	<path class="st0" d="M1335.1,1230.4c0-53.9,0-107.9,0-161.8c0-19.5,3.5-38.5,10.2-56.7c15.3-41.1,43.3-67.6,87.6-75.6
		c26.4-4.8,52.5-5.6,78.8,0.5c50.1,11.7,79.4,43.6,90.9,92.9c7.8,33.1,5.6,66.7,5.7,100.2c0,4.6-1.8,6.4-6.3,6.3
		c-24.9-0.2-49.8-0.5-74.6-0.5c-6.4,0-6.2-3.8-6.2-8.3c0.1-19.7,0.4-39.4-0.1-59.1c-0.3-14.7-2.7-29.1-14-40
		c-13.4-13-30-16.9-47.3-11.9c-18.1,5.2-29,18.1-31.9,37.4c-1.8,12.2-2.3,24.4-2.3,36.7c-0.6,102.4-0.9,204.8,0.6,307.2
		c0.5,32.8,21.6,51.8,52.6,48.9c26.9-2.5,41.5-20.3,42.2-52.8c0.6-26.2,0.6-52.3,0.2-78.5c-0.1-7.5,2-9.1,9.2-8.9
		c23.6,0.6,47.2,0.6,70.8,0.4c5.4,0,7.3,1.6,7.2,7.1c-0.5,35.8,1.5,71.8-4.1,107.3c-5.6,35.8-19.1,67.5-51.6,87.7
		c-27.5,17.1-57.8,22.5-89.6,21.4c-22.4-0.7-44.3-4.6-64.2-15.2c-33.8-18.1-52.4-47.6-60-84.4c-3.4-16.1-4.2-32.5-4.2-49.1
		c0.2-50.4,0.1-100.8,0.1-151.2C1335,1230.4,1335,1230.4,1335.1,1230.4z"/>
	<path class="st0" d="M3778.9,1347.8c12,0,23.9,0.3,35.9-0.1c6.1-0.2,8.4,2.1,7.7,7.8c-2.1,15.5,0.2,31,0.7,46.4
		c0.8,24.9,18.9,43.6,43.2,44.5c28.8,1,45.8-13.3,49.7-40.1c5.8-39.3-6.8-72-32.9-100.9c-28.4-31.4-61.8-57.8-90.3-89.2
		c-37.2-40.9-57.6-88.2-54.8-144c1.3-26.1,5.4-51.8,17.4-75.6c15.4-30.5,39.1-50.7,72.6-58.8c29.6-7.2,59.4-8,89.1-0.4
		c44.8,11.5,71.7,41,84.1,84.6c6.3,22.2,7.5,45.1,8.3,68c0.2,6.5-3,7.5-8.2,7.4c-24.2-0.1-48.5-0.3-72.7,0c-6.2,0.1-6.9-2.7-6.7-7.6
		c0.4-11.3,0.1-22.6-1.8-33.8c-4.2-25.6-16.2-40-43.7-41.5c-20.4-1.1-38.3,13.6-43.8,35.9c-9.2,37.6,2.1,70.2,25.6,98.9
		c23.4,28.5,51.7,52.4,77.9,78.3c24.9,24.7,47.3,51.1,60.3,84.3c11.1,28.5,14.9,57.8,12,88.1c-1.3,13.8-2.9,27.4-6.7,40.9
		c-12.5,43.9-39.6,72.6-84.4,84.2c-39.5,10.2-77.8,7.8-114.8-9.7c-36.6-17.3-54.6-48.5-62.7-86.6c-5.3-24.8-4-50.1-5.3-75.2
		c-0.3-5,2.3-5.9,6.5-5.8C3753.7,1347.8,3766.3,1347.7,3778.9,1347.8C3778.9,1347.8,3778.9,1347.8,3778.9,1347.8z"/>
	<path class="st0" d="M3409.3,1347.7c12.3,0,24.6,0.2,36.8-0.1c5.1-0.1,6.8,1.7,6.7,6.7c-0.2,13.6,0,27.1-0.2,40.7
		c-0.1,6.2,1.2,12.2,2.7,18.1c6.8,25.5,21.6,35,51,33.3c19.6-1.1,35.8-17.7,39.6-40.1c5.5-32.8-3.3-62-22.7-88.1
		c-18.5-24.7-41.6-45.1-64.5-65.4c-26.7-23.7-49.7-50.4-68-81.4c-17.8-30-22.9-62.6-22.7-96.5c0.1-21.3,2.8-42.4,10.5-62.6
		c17.2-44.6,48.2-71.9,96.8-77.9c27-3.3,53.6-3.3,79.5,4.9c43.8,13.8,68,45.6,78.2,89.2c4.6,19.9,5.4,40.2,5.9,60.5
		c0.2,6.2-1.9,8.5-8.3,8.4c-23.9-0.3-47.8-0.3-71.7-0.2c-5.5,0-7.4-1.8-7.3-7.3c0.3-12.6,0-25.1-1.6-37.7
		c-2.8-21.6-19.4-36.2-44.4-38.1c-18.2-1.4-36.2,11.8-41.5,30.7c-10.9,38.5-0.5,72.3,23,103.2c15.3,20.2,34.1,37,52.8,53.9
		c29,26.3,57.2,53.3,76.5,88c22.7,40.9,27.2,84.6,19.6,130.1c-3.6,21.5-9.7,42-22.3,60.1c-18.6,26.7-45.1,40.7-76.1,46.7
		c-31.5,6.1-62.8,4.6-93.3-6.4c-41.2-14.8-62.9-46-72.8-87c-6.2-26-6.3-52.4-6.1-78.9c0-5.4,1.6-7.4,7.2-7.2
		C3384.7,1348,3397,1347.7,3409.3,1347.7z"/>
</g>
</svg>
